<svg width="16" height="16" viewBox="0 0 16 16" fill="none" xmlns="http://www.w3.org/2000/svg">
<path d="M0 15.2C0 14.7582 0.358172 14.4 0.8 14.4H15.2C15.6418 14.4 16 14.7582 16 15.2C16 15.6418 15.6418 16 15.2 16H0.8C0.358173 16 0 15.6418 0 15.2Z" fill="#212121"/>
<path fill-rule="evenodd" clip-rule="evenodd" d="M14.4 1.6H1.6V9.6H14.4V1.6ZM1 0C0.447715 0 0 0.447714 0 0.999999V10.2C0 10.7523 0.447715 11.2 1 11.2H15C15.5523 11.2 16 10.7523 16 10.2V1C16 0.447715 15.5523 0 15 0H1Z" fill="#212121"/>
</svg>
