<svg width="14" height="16" viewBox="0 0 14 16" fill="none" xmlns="http://www.w3.org/2000/svg">
<path fill-rule="evenodd" clip-rule="evenodd" d="M0.0987061 0.566811C0.265226 0.220346 0.615604 0 1.00001 0L13 4.17233e-07C13.3844 4.17233e-07 13.7348 0.220346 13.9013 0.566812C14.0678 0.913277 14.021 1.32453 13.7809 1.6247L10 6.35078V12C10 12.3148 9.85182 12.6111 9.60001 12.8L5.60001 15.8C5.29699 16.0273 4.89158 16.0638 4.5528 15.8944C4.21401 15.725 4.00001 15.3788 4.00001 15V6.35078L0.219141 1.6247C-0.0209954 1.32453 -0.0678138 0.913277 0.0987061 0.566811ZM6.00001 7V13L8.00001 11.5V7H6.00001ZM8.51938 5L10.9194 2L3.08063 2L5.48063 5H8.51938Z" fill="#212121"/>
</svg>
