<svg width="14" height="14" viewBox="0 0 14 14" fill="none" xmlns="http://www.w3.org/2000/svg">
<path d="M7.32099 0.212457L9.2119 4.23489C9.25859 4.34493 9.36364 4.41829 9.46869 4.43051L13.7057 5.07851C13.9859 5.12741 14.1026 5.48197 13.8925 5.70204L10.8343 8.81974C10.7526 8.90532 10.7176 9.02758 10.741 9.14985L11.4647 13.5757C11.5113 13.8692 11.2195 14.1015 10.9627 13.9548L7.16925 11.8641C7.0642 11.8029 6.94747 11.8029 6.84242 11.8641L3.04893 13.9548C2.79214 14.0893 2.50033 13.8692 2.54702 13.5757L3.2707 9.14985C3.29405 9.02758 3.24736 8.91755 3.16565 8.83196L0.10751 5.68982C-0.102592 5.48197 0.0141314 5.11518 0.294266 5.06628L4.53131 4.41829C4.64803 4.40606 4.74141 4.3327 4.7881 4.22267L6.67901 0.20023C6.81908 -0.0687472 7.19259 -0.0687472 7.32099 0.212457Z" fill="#FD9800"/>
</svg>
